<svg xmlns="http://www.w3.org/2000/svg" version="1.1" xmlns:xlink="http://www.w3.org/1999/xlink" xmlns:svgjs="http://svgjs.dev/svgjs" width="1440" height="560" preserveAspectRatio="none" viewBox="0 0 1440 560"><g mask="url(&quot;#SvgjsMask1068&quot;)" fill="none"><rect width="1440" height="560" x="0" y="0" fill="rgba(15, 45, 60, 1)"></rect><path d="M748 524L747 741" stroke-width="6" stroke="url(&quot;#SvgjsLinearGradient1069&quot;)" stroke-linecap="round" class="Down"></path><path d="M332 458L331 766" stroke-width="8" stroke="url(&quot;#SvgjsLinearGradient1069&quot;)" stroke-linecap="round" class="Down"></path><path d="M1344 499L1343 730" stroke-width="8" stroke="url(&quot;#SvgjsLinearGradient1070&quot;)" stroke-linecap="round" class="Up"></path><path d="M814 308L813 164" stroke-width="6" stroke="url(&quot;#SvgjsLinearGradient1070&quot;)" stroke-linecap="round" class="Up"></path><path d="M885 105L884 487" stroke-width="10" stroke="url(&quot;#SvgjsLinearGradient1070&quot;)" stroke-linecap="round" class="Up"></path><path d="M373 391L372 119" stroke-width="8" stroke="url(&quot;#SvgjsLinearGradient1070&quot;)" stroke-linecap="round" class="Up"></path><path d="M798 110L797 278" stroke-width="6" stroke="url(&quot;#SvgjsLinearGradient1069&quot;)" stroke-linecap="round" class="Down"></path><path d="M621 126L620 -290" stroke-width="6" stroke="url(&quot;#SvgjsLinearGradient1069&quot;)" stroke-linecap="round" class="Down"></path><path d="M413 198L412 478" stroke-width="6" stroke="url(&quot;#SvgjsLinearGradient1069&quot;)" stroke-linecap="round" class="Down"></path><path d="M1040 85L1039 -267" stroke-width="8" stroke="url(&quot;#SvgjsLinearGradient1069&quot;)" stroke-linecap="round" class="Down"></path><path d="M562 393L561 731" stroke-width="10" stroke="url(&quot;#SvgjsLinearGradient1070&quot;)" stroke-linecap="round" class="Up"></path><path d="M66 192L65 -195" stroke-width="6" stroke="url(&quot;#SvgjsLinearGradient1070&quot;)" stroke-linecap="round" class="Up"></path><path d="M34 202L33 -4" stroke-width="10" stroke="url(&quot;#SvgjsLinearGradient1070&quot;)" stroke-linecap="round" class="Up"></path><path d="M958 288L957 462" stroke-width="8" stroke="url(&quot;#SvgjsLinearGradient1070&quot;)" stroke-linecap="round" class="Up"></path><path d="M996 212L995 69" stroke-width="8" stroke="url(&quot;#SvgjsLinearGradient1069&quot;)" stroke-linecap="round" class="Down"></path><path d="M380 337L379 -14" stroke-width="8" stroke="url(&quot;#SvgjsLinearGradient1070&quot;)" stroke-linecap="round" class="Up"></path><path d="M1439 168L1438 -79" stroke-width="6" stroke="url(&quot;#SvgjsLinearGradient1069&quot;)" stroke-linecap="round" class="Down"></path><path d="M1356 422L1355 771" stroke-width="10" stroke="url(&quot;#SvgjsLinearGradient1070&quot;)" stroke-linecap="round" class="Up"></path><path d="M762 139L761 -257" stroke-width="6" stroke="url(&quot;#SvgjsLinearGradient1069&quot;)" stroke-linecap="round" class="Down"></path><path d="M1084 269L1083 -107" stroke-width="6" stroke="url(&quot;#SvgjsLinearGradient1069&quot;)" stroke-linecap="round" class="Down"></path><path d="M35 59L34 317" stroke-width="6" stroke="url(&quot;#SvgjsLinearGradient1070&quot;)" stroke-linecap="round" class="Up"></path><path d="M1027 46L1026 -116" stroke-width="6" stroke="url(&quot;#SvgjsLinearGradient1069&quot;)" stroke-linecap="round" class="Down"></path><path d="M657 158L656 568" stroke-width="8" stroke="url(&quot;#SvgjsLinearGradient1069&quot;)" stroke-linecap="round" class="Down"></path><path d="M752 206L751 351" stroke-width="8" stroke="url(&quot;#SvgjsLinearGradient1070&quot;)" stroke-linecap="round" class="Up"></path><path d="M1005 492L1004 350" stroke-width="6" stroke="url(&quot;#SvgjsLinearGradient1069&quot;)" stroke-linecap="round" class="Down"></path><path d="M701 252L700 16" stroke-width="8" stroke="url(&quot;#SvgjsLinearGradient1070&quot;)" stroke-linecap="round" class="Up"></path><path d="M153 218L152 410" stroke-width="8" stroke="url(&quot;#SvgjsLinearGradient1069&quot;)" stroke-linecap="round" class="Down"></path><path d="M560 202L559 -81" stroke-width="6" stroke="url(&quot;#SvgjsLinearGradient1070&quot;)" stroke-linecap="round" class="Up"></path><path d="M1076 102L1075 326" stroke-width="10" stroke="url(&quot;#SvgjsLinearGradient1069&quot;)" stroke-linecap="round" class="Down"></path><path d="M366 203L365 -5" stroke-width="6" stroke="url(&quot;#SvgjsLinearGradient1070&quot;)" stroke-linecap="round" class="Up"></path><path d="M1121 222L1120 -83" stroke-width="8" stroke="url(&quot;#SvgjsLinearGradient1069&quot;)" stroke-linecap="round" class="Down"></path><path d="M980 383L979 -28" stroke-width="10" stroke="url(&quot;#SvgjsLinearGradient1069&quot;)" stroke-linecap="round" class="Down"></path><path d="M6 282L5 -52" stroke-width="6" stroke="url(&quot;#SvgjsLinearGradient1069&quot;)" stroke-linecap="round" class="Down"></path><path d="M245 431L244 113" stroke-width="8" stroke="url(&quot;#SvgjsLinearGradient1069&quot;)" stroke-linecap="round" class="Down"></path><path d="M371 234L370 411" stroke-width="6" stroke="url(&quot;#SvgjsLinearGradient1069&quot;)" stroke-linecap="round" class="Down"></path><path d="M1264 31L1263 -145" stroke-width="8" stroke="url(&quot;#SvgjsLinearGradient1070&quot;)" stroke-linecap="round" class="Up"></path></g><defs><mask id="SvgjsMask1068"><rect width="1440" height="560" fill="#ffffff"></rect></mask><linearGradient x1="0%" y1="0%" x2="0%" y2="100%" id="SvgjsLinearGradient1069"><stop stop-color="rgba(0, 85, 70, 0)" offset="0"></stop><stop stop-color="rgba(0, 85, 70, 1)" offset="1"></stop></linearGradient><linearGradient x1="0%" y1="100%" x2="0%" y2="0%" id="SvgjsLinearGradient1070"><stop stop-color="rgba(0, 85, 70, 0)" offset="0"></stop><stop stop-color="rgba(0, 85, 70, 1)" offset="1"></stop></linearGradient></defs></svg>